<?xml version="1.0" encoding="UTF-8" standalone="no"?>
<!-- Generator: Adobe Illustrator 19.0.0, SVG Export Plug-In . SVG Version: 6.00 Build 0)  -->

<svg
   version="1.1"
   id="Layer_1"
   x="0px"
   y="0px"
   viewBox="0 0 511.999 330.00001"
   xml:space="preserve"
   sodipodi:docname="fish.svg"

   inkscape:version="1.1.1 (3bf5ae0d25, 2021-09-20)"
   xmlns:inkscape="http://www.inkscape.org/namespaces/inkscape"
   xmlns:sodipodi="http://sodipodi.sourceforge.net/DTD/sodipodi-0.dtd"
   xmlns="http://www.w3.org/2000/svg"
   xmlns:svg="http://www.w3.org/2000/svg"><defs
   id="defs59" /><sodipodi:namedview
   id="namedview57"
   pagecolor="#ffffff"
   bordercolor="#666666"
   borderopacity="1.0"
   inkscape:pageshadow="2"
   inkscape:pageopacity="0.0"
   inkscape:pagecheckerboard="0"
   showgrid="false"
   width="511.99899px"
   inkscape:zoom="1.4023465"
   inkscape:cx="255.64295"
   inkscape:cy="199.3088"
   inkscape:window-width="1920"
   inkscape:window-height="991"
   inkscape:window-x="-9"
   inkscape:window-y="-9"
   inkscape:window-maximized="1"
   inkscape:current-layer="Layer_1" />
<g
   id="g6"
   transform="translate(0.71309052,-92.701768)">
	<g
   id="g4">
		<path
   d="m 477.159,209.634 c -22.373,-19.971 -52.396,-37.151 -84.553,-48.389 -0.021,-0.008 -0.041,-0.015 -0.062,-0.023 -0.035,-0.012 -0.069,-0.025 -0.104,-0.038 -14.841,-5.176 -30.09,-9.081 -45.385,-11.658 -9.029,-10.947 -38.976,-42.731 -90.831,-54.779 -8.616,-2.004 -17.536,0.011 -24.482,5.525 -6.989,5.55 -10.997,13.847 -10.997,22.765 v 41.181 c -48.704,21.435 -87.315,56.393 -108.074,77.857 -3.091,-15.604 -9.946,-35.331 -25.076,-50.461 -28.811,-28.81 -75.188,-27.613 -77.136,-27.547 -5.686,0.189 -10.251,4.754 -10.438,10.44 -0.066,1.959 -1.25,48.315 27.558,77.123 7.147,7.147 15.338,12.389 23.679,16.243 -8.341,3.935 -16.534,9.23 -23.68,16.376 -28.807,28.819 -27.622,75.174 -27.557,77.133 0.187,5.686 4.752,10.252 10.438,10.441 0.185,0.006 0.768,0.023 1.697,0.023 8.884,0 49.358,-1.49 75.439,-27.581 15.257,-15.257 22.098,-35.435 25.148,-51.334 15.226,15.715 40.028,38.66 71.384,58.28 v 37.75 c 0,9.261 4.259,17.745 11.685,23.275 5.108,3.803 11.122,5.772 17.265,5.772 2.802,0 5.631,-0.409 8.412,-1.241 26.134,-7.803 45.906,-22.044 55.071,-29.547 8.83,1.294 17.628,1.958 26.221,1.958 29.499,0 59.016,-4.962 87.729,-14.746 0.019,-0.006 0.038,-0.013 0.057,-0.019 66.961,-22.822 121.429,-70.785 121.429,-106.936 0.006,-17.246 -12.368,-37.787 -34.837,-57.843 z M 42.858,236.355 c -14.78,-14.78 -19.297,-36.961 -20.664,-50.15 13.164,1.337 35.267,5.824 50.128,20.685 14.767,14.766 19.287,36.531 20.66,49.454 -12.976,-1.085 -35.303,-5.168 -50.124,-19.989 z m 29.463,92.635 c -14.767,14.772 -36.927,19.292 -50.123,20.661 1.373,-13.201 5.896,-35.357 20.66,-50.128 14.828,-14.828 37.109,-19.32 50.151,-20.668 -1.336,13.16 -5.822,35.269 -20.688,50.135 z M 242.35,123.036 c 0,-2.289 1.03,-4.42 2.828,-5.847 1.03,-0.819 3.202,-2.088 6.155,-1.401 27.276,6.338 47.721,19.118 61.262,30.172 -3.279,-0.124 -6.551,-0.187 -9.81,-0.187 -19.714,0 -39.981,3.408 -60.435,10.135 z m -27.042,273.031 c -2.28,0.682 -4.684,0.26 -6.589,-1.159 -1.115,-0.83 -2.986,-2.706 -2.986,-5.947 v -25.423 c 14.267,7.367 28.51,13.167 42.625,17.377 -8.665,5.431 -19.918,11.231 -33.05,15.152 z m 87.478,-28.494 c -9,0 -18.284,-0.822 -27.583,-2.441 -24.301,-4.253 -49.44,-14.088 -74.718,-29.237 -39.823,-23.869 -69.808,-54.927 -81.877,-68.423 15.37,-17.194 59.812,-62.867 116.99,-86.085 0.069,-0.028 0.139,-0.053 0.207,-0.082 22.825,-9.241 45.359,-13.929 66.98,-13.929 12.163,0 24.524,0.943 36.744,2.805 9.328,1.418 18.652,3.392 27.879,5.878 -22.668,24.062 -37.057,59.506 -37.057,93.834 0,31.343 13.892,65.168 35.752,89.347 -20.896,5.527 -42.121,8.333 -63.317,8.333 z m 86.496,-15.624 c -22.513,-20.292 -37.328,-52.514 -37.328,-82.054 0,-32.312 15.771,-66.911 38.876,-86.318 61.838,23.127 99.569,63.92 99.569,83.897 0,20.316 -38.313,61.461 -101.117,84.475 z"
   id="path2" />
	</g>
</g>
<g
   id="g12"
   transform="translate(0.71309052,-92.701768)">
	<g
   id="g10">
		<path
   d="m 429.154,254.253 c -5.965,0 -10.802,4.837 -10.802,10.802 v 4.839 c 0,5.965 4.837,10.802 10.802,10.802 5.965,0 10.802,-4.837 10.802,-10.802 v -4.839 c -0.001,-5.965 -4.838,-10.802 -10.802,-10.802 z"
   id="path8" />
	</g>
</g>
<g
   id="g18"
   transform="translate(0.71309052,-92.701768)">
	<g
   id="g16">
		<path
   d="m 317.298,194.865 c -4.326,-4.109 -11.162,-3.931 -15.27,0.394 -1.036,1.091 -2.058,2.234 -3.04,3.399 -3.844,4.563 -3.262,11.377 1.302,15.22 2.026,1.708 4.496,2.542 6.954,2.542 3.075,0 6.13,-1.307 8.265,-3.843 0.707,-0.839 1.442,-1.661 2.183,-2.442 4.109,-4.326 3.932,-11.162 -0.394,-15.27 z"
   id="path14" />
	</g>
</g>
<g
   id="g24"
   transform="translate(0.71309052,-92.701768)">
	<g
   id="g22">
		<path
   d="m 316.052,327.016 c -12.007,-13.824 -18.893,-34.793 -18.893,-57.531 0,-12.73 2.228,-25.254 6.446,-36.22 2.141,-5.568 -0.637,-11.817 -6.204,-13.959 -5.569,-2.142 -11.818,0.636 -13.96,6.204 -5.158,13.414 -7.885,28.62 -7.885,43.973 0,27.868 8.815,54.001 24.186,71.698 2.137,2.46 5.139,3.719 8.159,3.719 2.511,0 5.034,-0.871 7.079,-2.646 4.503,-3.913 4.984,-10.735 1.072,-15.238 z"
   id="path20" />
	</g>
</g>
<g
   id="g26">
</g>
<g
   id="g28">
</g>
<g
   id="g30">
</g>
<g
   id="g32">
</g>
<g
   id="g34">
</g>
<g
   id="g36">
</g>
<g
   id="g38">
</g>
<g
   id="g40">
</g>
<g
   id="g42">
</g>
<g
   id="g44">
</g>
<g
   id="g46">
</g>
<g
   id="g48">
</g>
<g
   id="g50">
</g>
<g
   id="g52">
</g>
<g
   id="g54">
</g>
</svg>
