<?xml version="1.0" encoding="UTF-8" standalone="no"?>
<!-- Created with Inkscape (http://www.inkscape.org/) -->

<svg
   width="170mm"
   height="97mm"
   viewBox="0 0 170 97"
   version="1.1"
   id="svg5"
   sodipodi:docname="Fish 3.svg"
   inkscape:version="1.1.1 (3bf5ae0d25, 2021-09-20)"
   xmlns:inkscape="http://www.inkscape.org/namespaces/inkscape"
   xmlns:sodipodi="http://sodipodi.sourceforge.net/DTD/sodipodi-0.dtd"
   xmlns="http://www.w3.org/2000/svg"
   xmlns:svg="http://www.w3.org/2000/svg">
  <sodipodi:namedview
     id="namedview7"
     pagecolor="#ffffff"
     bordercolor="#666666"
     borderopacity="1.0"
     inkscape:pageshadow="2"
     inkscape:pageopacity="0.0"
     inkscape:pagecheckerboard="0"
     inkscape:document-units="mm"
     showgrid="false"
     inkscape:zoom="1.2792649"
     inkscape:cx="285.71096"
     inkscape:cy="180.9633"
     inkscape:window-width="1920"
     inkscape:window-height="991"
     inkscape:window-x="-9"
     inkscape:window-y="-9"
     inkscape:window-maximized="1"
     inkscape:current-layer="layer1" />
  <defs
     id="defs2" />
  <g
     inkscape:label="Layer 1"
     inkscape:groupmode="layer"
     id="layer1">
    <path
       style="fill:#d1d8d8;fill-opacity:1;stroke:#000000;stroke-width:2.32929;stroke-linecap:butt;stroke-linejoin:miter;stroke-miterlimit:4;stroke-dasharray:none;stroke-opacity:1"
       d="m 37.581211,72.811748 c 0.06404,0.04107 0.128202,0.08203 0.192494,0.122883 18.410943,11.697465 47.188033,14.308141 69.810135,13.223365 20.62338,-0.988932 88.21279,-23.147347 39.91663,-40.494779 C 127.09398,38.333431 91.717757,24.064565 69.871889,29.188409 59.697877,31.574674 38.692459,41.401217 34.77198,46.091477 25.655163,56.998371 17.400224,57.88009 14.972269,34.296266 11.667022,2.1909127 -3.8487507,49.270966 18.049028,82.571983 21.784126,88.252128 29.901657,59.335784 37.581211,72.811748"
       id="path889"
       sodipodi:nodetypes="csssssssc" />
    <path
       style="fill:#d1d8d8;fill-opacity:1;stroke:#000000;stroke-width:1.5;stroke-linecap:butt;stroke-linejoin:miter;stroke-miterlimit:4;stroke-dasharray:none;stroke-opacity:1"
       d="m 135.9938,42.340541 c -6.38722,8.860301 -14.27174,31.93253 -2.20538,36.287566"
       id="path891"
       sodipodi:nodetypes="cc" />
    <ellipse
       style="fill:#000001;fill-opacity:1;stroke:none;stroke-width:1.8263;stroke-miterlimit:4;stroke-dasharray:none"
       id="path915"
       cx="145.29321"
       cy="-32.154858"
       rx="4.9878268"
       ry="2.5362833"
       transform="matrix(0.82816697,0.56048146,-0.69852737,0.71558333,0,0)" />
    <path
       style="fill:#64a1a0;fill-opacity:1;stroke:#000000;stroke-width:1.5;stroke-linecap:butt;stroke-linejoin:miter;stroke-miterlimit:4;stroke-dasharray:none;stroke-opacity:1"
       d="m 57.393803,42.502434 c 2.676385,4.392195 11.784208,5.40425 12.823119,-0.413647"
       id="path3270" />
    <path
       style="fill:#64a1a0;fill-opacity:1;stroke:#000000;stroke-width:1.5;stroke-linecap:butt;stroke-linejoin:miter;stroke-miterlimit:4;stroke-dasharray:none;stroke-opacity:1"
       d="m 106.82486,48.396936 c 6.19035,4.994309 11.59965,3.186904 17.7869,-0.310237"
       id="path3272" />
    <path
       style="fill:#64a1a0;fill-opacity:1;stroke:#000000;stroke-width:1.5;stroke-linecap:butt;stroke-linejoin:miter;stroke-miterlimit:4;stroke-dasharray:none;stroke-opacity:1"
       d="m 79.006965,49.224232 c 3.401539,6.346738 8.574326,5.921637 11.168523,0.517062"
       id="path3274" />
    <path
       style="fill:#64a1a0;fill-opacity:1;stroke:#000000;stroke-width:1.5;stroke-linecap:butt;stroke-linejoin:miter;stroke-miterlimit:4;stroke-dasharray:none;stroke-opacity:1"
       d="m 48.396936,59.048397 c 4.750422,5.433412 6.972737,3.821671 9.824164,-0.930712"
       id="path3276" />
    <path
       style="fill:#64a1a0;fill-opacity:1;stroke:#000000;stroke-width:1.5;stroke-linecap:butt;stroke-linejoin:miter;stroke-miterlimit:4;stroke-dasharray:none;stroke-opacity:1"
       d="m 89.360653,63.314016 c 4.750422,5.433412 6.972732,3.821671 9.824162,-0.930712"
       id="path3276-0" />
    <path
       style="fill:#64a1a0;fill-opacity:1;stroke:#000000;stroke-width:1.5;stroke-linecap:butt;stroke-linejoin:miter;stroke-miterlimit:4;stroke-dasharray:none;stroke-opacity:1"
       d="m 107.14756,76.34396 c 4.75042,5.433412 6.97273,3.821671 9.82416,-0.930712"
       id="path3276-0-3" />
    <path
       style="fill:#64a1a0;fill-opacity:1;stroke:#000000;stroke-width:1.5;stroke-linecap:butt;stroke-linejoin:miter;stroke-miterlimit:4;stroke-dasharray:none;stroke-opacity:1"
       d="m 60.599581,74.456824 c 7.860651,9.520484 12.449997,2.59664 14.477716,-2.585307"
       id="path3278" />
    <path
       style="fill:#d1d8d8;fill-opacity:1;stroke:#000000;stroke-width:3.5207;stroke-linecap:butt;stroke-linejoin:miter;stroke-miterlimit:4;stroke-dasharray:none;stroke-opacity:1"
       d="M 93.228794,29.44168 C 106.99567,-6.8669296 116.24268,0.79006801 118.69446,35.924868"
       id="path3280" />
    <path
       style="fill:#d1d8d8;fill-opacity:1;stroke:#000000;stroke-width:1.5;stroke-linecap:butt;stroke-linejoin:miter;stroke-miterlimit:4;stroke-dasharray:none;stroke-opacity:1"
       d="m 74.870474,83.97075 c 3.558323,13.73098 13.948296,11.703983 21.406337,1.964833"
       id="path3282"
       sodipodi:nodetypes="cc" />
    <path
       style="fill:none;stroke:#000000;stroke-width:0.264583px;stroke-linecap:butt;stroke-linejoin:miter;stroke-opacity:1"
       d="m 137.53829,67.631612 c 5.06154,0.83779 9.94184,-1.038196 14.27089,-2.275068"
       id="path5749" />
    <path
       style="fill:#ffffff;fill-opacity:1;stroke:#000000;stroke-width:0.264583px;stroke-linecap:butt;stroke-linejoin:miter;stroke-opacity:1"
       d="m 137.53829,67.631612 c 4.83892,6.372187 4.99281,6.891221 7.75592,-0.361942 2.87744,5.020824 4.46327,1.444213 6.51497,-1.913126"
       id="path5751"
       sodipodi:nodetypes="ccc" />
  </g>
</svg>
