<?xml version="1.0" encoding="UTF-8" standalone="no"?>
<!-- Created with Inkscape (http://www.inkscape.org/) -->

<svg
   width="170mm"
   height="59mm"
   viewBox="0 0 170 59"
   version="1.1"
   id="svg5"
   sodipodi:docname="Fish 2.svg"
   inkscape:version="1.1.1 (3bf5ae0d25, 2021-09-20)"
   xmlns:inkscape="http://www.inkscape.org/namespaces/inkscape"
   xmlns:sodipodi="http://sodipodi.sourceforge.net/DTD/sodipodi-0.dtd"
   xmlns="http://www.w3.org/2000/svg"
   xmlns:svg="http://www.w3.org/2000/svg">
  <sodipodi:namedview
     id="namedview7"
     pagecolor="#ffffff"
     bordercolor="#666666"
     borderopacity="1.0"
     inkscape:pageshadow="2"
     inkscape:pageopacity="0.0"
     inkscape:pagecheckerboard="0"
     inkscape:document-units="mm"
     showgrid="false"
     inkscape:zoom="1.2792649"
     inkscape:cx="212.23126"
     inkscape:cy="251.31621"
     inkscape:window-width="1920"
     inkscape:window-height="991"
     inkscape:window-x="-9"
     inkscape:window-y="-9"
     inkscape:window-maximized="1"
     inkscape:current-layer="layer1" />
  <defs
     id="defs2" />
  <g
     inkscape:label="Layer 1"
     inkscape:groupmode="layer"
     id="layer1">
    <path
       style="fill:#64a1a0;fill-opacity:1;stroke:#000000;stroke-width:1.92434;stroke-linecap:butt;stroke-linejoin:miter;stroke-miterlimit:4;stroke-dasharray:none;stroke-opacity:1"
       d="m 34.892492,39.891636 c 0.06404,0.02803 0.128202,0.05599 0.192494,0.08387 18.410943,7.983751 47.188033,9.765589 69.810144,9.025208 20.62338,-0.674966 88.21279,-15.798522 39.91663,-27.638488 C 124.40527,16.359502 89.029038,6.620719 67.18317,10.117844 57.009158,11.746517 38.100198,20.917791 32.083261,21.654522 28.067132,22.146269 16.939756,13.953508 12.28355,13.604057 c -4.8037168,-0.360522 0.169101,31.775048 3.076759,32.949132 4.974703,2.008738 16.008676,-4.74921 19.532183,-6.661553"
       id="path889"
       sodipodi:nodetypes="csssssssc" />
    <path
       style="fill:#64a1a0;fill-opacity:1;stroke:#000000;stroke-width:1.5;stroke-linecap:butt;stroke-linejoin:miter;stroke-miterlimit:4;stroke-dasharray:none;stroke-opacity:1"
       d="m 131.85731,18.762548 c -6.38722,8.860301 -9.51478,21.38448 2.55158,25.739516"
       id="path891" />
    <ellipse
       style="fill:#000001;fill-opacity:1;stroke:none;stroke-width:1.5;stroke-miterlimit:4;stroke-dasharray:none"
       id="path915"
       cx="139.95905"
       cy="13.864372"
       rx="2.9472494"
       ry="2.8955431"
       transform="rotate(7.0414503)" />
    <path
       style="fill:#64a1a0;fill-opacity:1;stroke:#000000;stroke-width:1.5;stroke-linecap:butt;stroke-linejoin:miter;stroke-miterlimit:4;stroke-dasharray:none;stroke-opacity:1"
       d="m 49.120822,22.647282 c 2.676385,4.392195 11.784208,5.40425 12.823119,-0.413647"
       id="path3270" />
    <path
       style="fill:#64a1a0;fill-opacity:1;stroke:#000000;stroke-width:1.5;stroke-linecap:butt;stroke-linejoin:miter;stroke-miterlimit:4;stroke-dasharray:none;stroke-opacity:1"
       d="m 99.586004,21.923399 c 6.190356,4.994309 11.599656,3.186904 17.786906,-0.310237"
       id="path3272" />
    <path
       style="fill:#64a1a0;fill-opacity:1;stroke:#000000;stroke-width:1.5;stroke-linecap:butt;stroke-linejoin:miter;stroke-miterlimit:4;stroke-dasharray:none;stroke-opacity:1"
       d="m 76.111421,26.887186 c 3.401539,6.346738 8.574326,5.921637 11.168523,0.517062"
       id="path3274" />
    <path
       style="fill:#64a1a0;fill-opacity:1;stroke:#000000;stroke-width:1.5;stroke-linecap:butt;stroke-linejoin:miter;stroke-miterlimit:4;stroke-dasharray:none;stroke-opacity:1"
       d="m 41.778551,34.022632 c 4.750422,5.433412 6.972737,3.821671 9.824164,-0.930712"
       id="path3276" />
    <path
       style="fill:#64a1a0;fill-opacity:1;stroke:#000000;stroke-width:1.5;stroke-linecap:butt;stroke-linejoin:miter;stroke-miterlimit:4;stroke-dasharray:none;stroke-opacity:1"
       d="m 93.703967,35.806357 c 4.750422,5.433412 6.972733,3.821671 9.824163,-0.930712"
       id="path3276-0" />
    <path
       style="fill:#64a1a0;fill-opacity:1;stroke:#000000;stroke-width:1.5;stroke-linecap:butt;stroke-linejoin:miter;stroke-miterlimit:4;stroke-dasharray:none;stroke-opacity:1"
       d="m 107.35439,40.356496 c 4.75042,5.433412 6.97273,3.821671 9.82416,-0.930712"
       id="path3276-0-3" />
    <path
       style="fill:#64a1a0;fill-opacity:1;stroke:#000000;stroke-width:1.5;stroke-linecap:butt;stroke-linejoin:miter;stroke-miterlimit:4;stroke-dasharray:none;stroke-opacity:1"
       d="m 60.806405,38.46936 c 7.860651,9.520484 12.449997,2.59664 14.477716,-2.585307"
       id="path3278" />
    <path
       style="fill:#64a1a0;fill-opacity:1;stroke:#000000;stroke-width:1.5;stroke-linecap:butt;stroke-linejoin:miter;stroke-miterlimit:4;stroke-dasharray:none;stroke-opacity:1"
       d="M 76.059306,8.929878 C 82.219136,-0.34354796 89.84467,1.176683 95.469942,9.585057"
       id="path3280" />
    <path
       style="fill:#64a1a0;fill-opacity:1;stroke:#000000;stroke-width:1.5;stroke-linecap:butt;stroke-linejoin:miter;stroke-miterlimit:4;stroke-dasharray:none;stroke-opacity:1"
       d="m 75.077298,47.983286 c 4.042143,8.650873 14.564183,5.237168 21.406337,1.964833"
       id="path3282" />
  </g>
</svg>
