<?xml version="1.0" encoding="UTF-8" standalone="no"?>
<!-- Created with Inkscape (http://www.inkscape.org/) -->

<svg
   width="100mm"
   height="100mm"
   viewBox="0 0 100 100"
   version="1.1"
   id="svg5"
   inkscape:version="1.1.1 (3bf5ae0d25, 2021-09-20)"
   sodipodi:docname="moss.svg"
   xmlns:inkscape="http://www.inkscape.org/namespaces/inkscape"
   xmlns:sodipodi="http://sodipodi.sourceforge.net/DTD/sodipodi-0.dtd"
   xmlns="http://www.w3.org/2000/svg"
   xmlns:svg="http://www.w3.org/2000/svg">
  <sodipodi:namedview
     id="namedview7"
     pagecolor="#ffffff"
     bordercolor="#666666"
     borderopacity="1.0"
     inkscape:pageshadow="2"
     inkscape:pageopacity="0.0"
     inkscape:pagecheckerboard="0"
     inkscape:document-units="mm"
     showgrid="false"
     inkscape:zoom="1.2792649"
     inkscape:cx="177.83651"
     inkscape:cy="139.53326"
     inkscape:window-width="1920"
     inkscape:window-height="991"
     inkscape:window-x="-9"
     inkscape:window-y="-9"
     inkscape:window-maximized="1"
     inkscape:current-layer="layer1" />
  <defs
     id="defs2" />
  <g
     inkscape:label="Layer 1"
     inkscape:groupmode="layer"
     id="layer1">
    <rect
       style="fill:#007600;fill-opacity:1;stroke-width:1.5"
       id="rect1720"
       width="133.60863"
       height="121.40598"
       x="-16.545961"
       y="-11.168524" />
    <path
       style="fill:none;stroke:#000000;stroke-width:0.264583px;stroke-linecap:butt;stroke-linejoin:miter;stroke-opacity:1"
       d="M 20.889275,-6.4115597 C 14.81202,-2.8349813 8.3826463,0.18387152 2.2750696,3.7228412 -20.448265,16.889633 7.284518,8.2337052 17.993732,13.443593 23.958352,16.3453 5.0739172,23.579175 4.1364902,23.991643 c -4.32889753,1.904715 13.2383528,4.132795 11.3753478,8.479804 -4.933876,11.512378 -28.157839,30.064934 -29.36908,41.571727 -0.55835,5.304327 11.379578,2.511504 11.7889969,5.377439 2.70024805,18.901735 -7.4375839,10.683346 13.6504181,20.2688"
       id="path1755" />
    <path
       style="fill:none;stroke:#000000;stroke-width:0.264583px;stroke-linecap:butt;stroke-linejoin:miter;stroke-opacity:1"
       d="M 63.081476,-4.7569638 C 58.941014,5.0522817 -15.235346,30.957795 4.5501393,32.678272 c 3.2280693,0.280701 6.4805007,0 9.7207517,0 15.580779,0.689417 31.22925,0.461986 46.74234,2.068245 81.507649,8.439486 -42.31271,33.008405 -32.264625,47.362813 3.544332,5.063329 115.059434,16.832561 69.906686,9.307102"
       id="path1757" />
    <path
       style="fill:none;stroke:#000000;stroke-width:0.264583px;stroke-linecap:butt;stroke-linejoin:miter;stroke-opacity:1"
       d="M 92.243732,-2.4818941 C 71.395198,28.197624 41.44519,46.056788 10.341225,64.736072 -26.036172,86.582281 -37.092897,88.570524 -31.230501,89.348187 15.276591,95.517495 67.276683,76.265883 112.92618,69.699859 c 7.03957,-1.01254 -13.952197,2.775616 -20.889273,4.343315 -27.35625,6.182204 -25.771676,6.439789 -57.29039,15.718663 -28.4863415,8.386167 13.025824,2.267479 21.923398,2.895544 4.769515,0.336672 5.783186,9.323679 10.548051,9.720749 5.800307,0.48336 13.409203,-0.99531 18.82103,1.03412 5.076261,1.9036 -10.728127,-2.50058 -16.132313,-2.06824 -18.270018,1.4616 -37.334459,0 -55.635792,0 -5.8927847,0 -20.2154167,-3.409247 -17.5800831,1.86142 C 1.9276624,113.67914 178.1988,75.784696 95.552923,74.870473 71.286607,74.60204 47.016259,74.786407 22.750696,74.456824 -81.331627,73.043142 10.22288,73.215877 -46.742339,73.215877 c -2.068245,0 4.136491,0 6.204736,0 12.961001,0 25.922004,0 38.8830069,0 35.9162191,0 71.8400391,-0.192063 107.7555661,0 2.68957,0.01439 -5.37655,0.206825 -8.066152,0.206825 -10.897553,0 -31.075781,2.878175 -42.192199,-0.827299 -0.05993,-0.01998 29.075779,-8.134927 47.776461,-18.821029 1.49765,-0.8558 -3.4457,-0.206825 -5.170613,-0.206825 -11.995822,0 -23.991643,0 -35.987465,0 -40.261838,0 -80.523676,0 -120.785513,0 -7.3078,0 14.615599,0 21.923398,0 45.8280379,0 91.720643,-0.558895 137.538293,0.413647 11.6884,0.248105 46.40591,0.546301 34.95335,2.895544 -24.33133,4.991042 -275.1525,13.239639 -116.442201,-13.857242 21.1456,-3.610224 43.032594,-5.560864 64.115597,-9.513927 5.495306,-1.03037 -11.165956,0.609629 -16.752784,0.827296 -29.29468,1.141352 -58.7897897,2.229573 -88.107242,1.447774 -4.630279,-0.123476 8.943685,-2.41804 13.4435931,-3.516016 C 6.2850579,28.863858 20.298555,25.747201 34.126045,21.923398 53.52833,16.557962 81.093574,9.6525563 99.068939,-0.41364902 116.15377,-9.9811524 25.04033,10.991412 40.330778,-1.2409471 50.869384,-9.6718307 82.936087,-7.164072 95.759748,-6.6183843 112.03754,-5.9257122 63.828051,-0.10286209 47.776463,2.6887186 41.430207,3.792415 60.586738,1.2964959 67.011142,0.82729804 85.052338,-0.49031744 103.32244,-0.62047352 121.40599,-0.62047352"
       id="path1759" />
    <path
       style="fill:none;stroke:#000000;stroke-width:0.264583px;stroke-linecap:butt;stroke-linejoin:miter;stroke-opacity:1"
       d="M 115.20125,12.202646 C 65.118749,31.309077 -3.3529518,27.672815 -50.258355,21.716573"
       id="path1761" />
    <path
       style="fill:none;stroke:#000000;stroke-width:0.264583px;stroke-linecap:butt;stroke-linejoin:miter;stroke-opacity:1"
       d="M -16.545961,-11.168524 C 21.804197,29.702008 86.430844,38.634857 139.39972,46.742339"
       id="path1763" />
  </g>
</svg>
