<?xml version="1.0" encoding="UTF-8" standalone="no"?>
<!-- Created with Inkscape (http://www.inkscape.org/) -->

<svg
   width="110mm"
   height="100mm"
   viewBox="0 0 110 100"
   version="1.1"
   id="svg5"
   inkscape:version="1.1.1 (3bf5ae0d25, 2021-09-20)"
   sodipodi:docname="random-cat.svg"
   inkscape:export-filename="C:\Users\Clew_\Desktop\Nav Faces-closed.png"
   inkscape:export-xdpi="73.581024"
   inkscape:export-ydpi="73.581024"
   xmlns:inkscape="http://www.inkscape.org/namespaces/inkscape"
   xmlns:sodipodi="http://sodipodi.sourceforge.net/DTD/sodipodi-0.dtd"
   xmlns="http://www.w3.org/2000/svg"
   xmlns:svg="http://www.w3.org/2000/svg">
  <sodipodi:namedview
     id="namedview7"
     pagecolor="#ffffff"
     bordercolor="#666666"
     borderopacity="1.0"
     inkscape:pageshadow="2"
     inkscape:pageopacity="0.0"
     inkscape:pagecheckerboard="0"
     inkscape:document-units="mm"
     showgrid="false"
     inkscape:zoom="1.2792649"
     inkscape:cx="79.342444"
     inkscape:cy="217.70316"
     inkscape:window-width="1920"
     inkscape:window-height="991"
     inkscape:window-x="-9"
     inkscape:window-y="-9"
     inkscape:window-maximized="1"
     inkscape:current-layer="layer2" />
  <defs
     id="defs2" />
  <g
     inkscape:label="Head"
     inkscape:groupmode="layer"
     id="layer1">
    <ellipse
       style="fill:#b55b02;fill-opacity:1;stroke:#000000;stroke-width:0.15079;stroke-opacity:1"
       id="path1006-5"
       cx="56.676525"
       cy="87.838943"
       rx="36.603157"
       ry="37.658043" />
    <path
       style="fill:#ffd069;fill-opacity:1;stroke:#000000;stroke-width:0.264583px;stroke-linecap:butt;stroke-linejoin:miter;stroke-opacity:1"
       d="M 24.155776,71.40377 C 6.3014163,37.285488 16.261956,48.535909 41.496126,53.739107"
       id="path14401"
       inkscape:transform-center-x="-4.4404968"
       inkscape:transform-center-y="-4.935653" />
    <path
       style="fill:#ed91f9;fill-opacity:0.517454;stroke:#000000;stroke-width:0.264583px;stroke-linecap:butt;stroke-linejoin:miter;stroke-opacity:1"
       d="m 27.134596,64.439398 c -4.49741,-12.049646 -1.40861,-6.938269 6.14239,-6.434867"
       id="path16155" />
    <path
       style="fill:#ffd069;fill-opacity:1;stroke:#000000;stroke-width:0.264583px;stroke-linecap:butt;stroke-linejoin:miter;stroke-opacity:1"
       d="m 70.245106,52.705954 c 34.228854,-17.641463 22.91659,-7.751203 17.55629,17.450061"
       id="path14401-0"
       inkscape:transform-center-x="-4.9539334"
       inkscape:transform-center-y="4.5187568" />
    <path
       style="fill:#ed91f9;fill-opacity:0.517454;stroke:#000000;stroke-width:0.264583px;stroke-linecap:butt;stroke-linejoin:miter;stroke-opacity:1"
       d="m 77.190786,55.728103 c 12.07743,-4.422255 6.94691,-1.365356 6.39648,6.182358"
       id="path16155-1" />
  </g>
  <g
     inkscape:groupmode="layer"
     id="layer2"
     inkscape:label="Eyes"
     style="display:inline">
    <circle
       style="fill:#ffd069;fill-opacity:1;stroke:none;stroke-width:0.211666;stroke-opacity:1"
       id="path6817-3"
       cx="41.466808"
       cy="87.253922"
       r="7.019856" />
    <circle
       style="display:inline;fill:#c57601;fill-opacity:1;stroke:none;stroke-width:0.211666;stroke-opacity:1"
       id="path6817-3-6"
       cx="68.25209"
       cy="87.486771"
       r="7.019856" />
    <path
       style="fill:none;stroke:#d38b00;stroke-width:2.80768;stroke-linecap:butt;stroke-linejoin:miter;stroke-miterlimit:4;stroke-dasharray:none;stroke-opacity:0.570842"
       d="m 48.493446,50.989882 c -0.57344,3.652739 -0.30334,7.370511 -0.30334,11.054086"
       id="path18665" />
    <path
       style="fill:none;stroke:#d38b00;stroke-width:2.80768;stroke-linecap:butt;stroke-linejoin:miter;stroke-miterlimit:4;stroke-dasharray:none;stroke-opacity:0.570842"
       d="m 55.115446,50.246396 c -0.57344,3.652739 -0.30334,7.370511 -0.30334,11.054086"
       id="path18665-3" />
    <path
       style="fill:none;stroke:#d38b00;stroke-width:2.80768;stroke-linecap:butt;stroke-linejoin:miter;stroke-miterlimit:4;stroke-dasharray:none;stroke-opacity:0.570842"
       d="m 61.257816,50.831383 c -0.57344,3.652739 -0.30334,7.370511 -0.30334,11.054087"
       id="path18665-2" />
    <path
       style="fill:#ffd069;fill-opacity:1;stroke:none;stroke-width:1.5634"
       d="m 46.878668,56.893742 c 0.03877,-2.77761 0.126889,-5.106486 0.195813,-5.175281 0.169063,-0.168747 2.429872,-0.636278 2.509488,-0.518958 0.0347,0.05114 0.02955,2.489555 -0.01146,5.418708 l -0.07456,5.325731 h -1.34489 -1.344893 z"
       id="path20188" />
    <path
       style="fill:#ffd069;fill-opacity:1;stroke:none;stroke-width:1.5634"
       d="m 53.479466,56.721623 c 0.0084,-2.417262 0.07823,-4.813841 0.15512,-5.325731 l 0.139788,-0.930711 1.034121,-0.05376 c 0.568767,-0.02957 1.127194,0.01696 1.240949,0.103412 0.131598,0.10001 0.181282,2.0566 0.136596,5.379496 l -0.07023,5.222318 h -1.325837 -1.325841 z"
       id="path20227" />
    <path
       style="fill:#ffd069;fill-opacity:1;stroke:none;stroke-width:1.5634"
       d="m 59.702575,56.376661 c 0.03834,-2.948251 0.135205,-5.425838 0.215254,-5.505749 0.08005,-0.07991 0.685014,-0.06428 1.344361,0.03473 l 1.198812,0.180017 -0.103413,1.758008 c -0.05687,0.966905 -0.09023,3.363484 -0.07412,5.325731 l 0.0293,3.567723 h -1.339948 -1.33995 z"
       id="path20266" />
    <path
       style="fill:#ffd069;fill-opacity:1;stroke:none;stroke-width:1.5634"
       d="m 66.081547,94.084061 c -4.921391,-1.794115 -6.339084,-7.82163 -2.696438,-11.464274 1.486313,-1.486312 2.643645,-1.95001 4.866979,-1.95001 2.223336,0 3.380668,0.463698 4.866981,1.95001 1.495092,1.495092 1.954657,2.645183 1.944801,4.866982 -0.0068,1.533916 -0.09616,2.043366 -0.507873,2.895544 -0.642691,1.330272 -2.096495,2.778728 -3.402729,3.390217 -1.366557,0.639726 -3.767,0.787176 -5.071721,0.311531 z"
       id="path20305" />
    <path
       style="fill:#b55b02;fill-opacity:1;stroke:none;stroke-width:1.5634"
       d="m 79.026323,61.301986 c -4.616487,-4.561956 -8.344037,-8.374674 -8.28345,-8.472707 0.14184,-0.229502 6.149308,-3.26037 10.022099,-5.056318 4.181662,-1.939182 7.365034,-3.140073 9.366054,-3.533239 1.54128,-0.302835 1.779754,-0.304555 2.466075,-0.01779 0.626412,0.261732 0.801558,0.47255 0.99768,1.200887 0.351552,1.305576 -0.09827,3.399906 -2.364576,11.009129 -1.069311,3.590264 -2.302494,8.019877 -2.740406,9.843584 -0.437914,1.823709 -0.857779,3.316978 -0.933037,3.318375 -0.07526,0.0013 -3.913955,-3.729966 -8.530439,-8.29192 z m 4.926071,-0.443873 c 0.07609,-0.597206 0.413829,-2.128203 0.75053,-3.402215 0.963986,-3.647522 0.827725,-4.136098 -1.097984,-3.936932 -1.243383,0.128597 -6.409589,1.824566 -6.469917,2.123953 -0.04637,0.230125 6.207699,6.301023 6.491139,6.301023 0.103339,0 0.250143,-0.488622 0.326232,-1.085829 z"
       id="path22936" />
    <path
       style="fill:#b55b02;fill-opacity:1;stroke:none;stroke-width:1.5634"
       d="m 24.137827,70.779213 c -0.360292,-0.445268 -5.121118,-10.091201 -6.300235,-12.764937 -2.182196,-4.948291 -2.905922,-8.12075 -2.111357,-9.25515 0.174795,-0.249555 0.688065,-0.553436 1.140599,-0.675291 1.309537,-0.352621 3.027132,0.01132 10.744238,2.276586 3.128222,0.918253 7.433797,2.101156 9.567947,2.628672 l 3.880276,0.959122 -1.708208,1.774499 C 31.030198,64.36652 24.321448,71.006143 24.137827,70.779213 Z m 9.253827,-12.80397 c 0.0058,-0.07834 -0.431583,-0.202999 -0.971912,-0.277008 -0.54033,-0.07401 -1.913125,-0.374544 -3.050662,-0.667855 -2.398249,-0.618384 -3.983232,-0.803275 -4.286481,-0.500026 -0.411831,0.411831 -0.167847,2.098742 0.683546,4.726065 0.472728,1.458796 0.951991,2.828491 1.065029,3.043772 0.181307,0.345292 0.579318,0.0041 3.377749,-2.895544 1.744726,-1.807827 3.176953,-3.351059 3.182731,-3.429404 z"
       id="path22975" />
    <path
       style="fill:#b55b02;fill-opacity:1;stroke:none;stroke-width:0.195425"
       d="m 23.935971,70.662814 c -1.752463,-3.352125 -3.709226,-7.234102 -4.69459,-9.313492 -0.44865,-0.946776 -0.870209,-1.851376 -0.886089,-1.901409 -0.01277,-0.04024 -0.0039,-0.0504 0.04388,-0.05004 0.05268,3.97e-4 0.09413,0.07295 0.343406,0.601084 1.772272,3.754822 5.10121,10.428111 5.363748,10.752334 l 0.04586,0.05663 0.113624,-0.06746 c 0.674908,-0.400695 4.930634,-4.570036 10.900557,-10.679287 0.443024,-0.453363 0.666901,-0.664886 0.697484,-0.658996 0.03142,0.0061 -1.712465,1.799078 -5.766274,5.928769 -3.196221,3.256052 -5.819434,5.92297 -5.829359,5.926484 -0.0099,0.0035 -0.159439,-0.264062 -0.332251,-0.59462 z"
       id="path23051" />
    <path
       style="fill:#b55b02;fill-opacity:1;stroke:none;stroke-width:0.0977125"
       d="m 73.403311,55.83526 c -1.667198,-1.656772 -3.032972,-3.017114 -3.035049,-3.022983 -0.0099,-0.02801 5.07174,-2.600988 6.932398,-3.510065 2.915515,-1.424457 4.93803,-2.361545 6.883379,-3.189264 0.410647,-0.174724 1.107345,-0.4629 1.119113,-0.4629 0.0037,0 0.0051,0.0324 0.0029,0.072 l -0.0039,0.072 -0.407185,0.164864 c -2.441607,0.988577 -5.457608,2.387269 -9.565632,4.436131 -2.906342,1.449527 -4.58892,2.34411 -4.58892,2.439808 0,0.113978 1.745305,1.93612 4.555508,4.756062 l 1.252781,1.257121 -0.05708,-2.32e-4 -0.05708,-2.32e-4 z"
       id="path23090" />
    <path
       style="fill:#b55b02;fill-opacity:1;stroke:none;stroke-width:0.138186"
       d="m 82.21438,64.589775 c -4.336103,-4.310914 -5.455126,-5.432702 -5.424032,-5.437424 0.04364,-0.0066 0.264816,0.20778 2.665119,2.583554 4.020544,3.979455 8.026056,7.869917 8.102647,7.869917 0.07137,0 0.374171,-1.051933 0.826151,-2.870099 0.438507,-1.763958 0.792334,-3.090929 1.433094,-5.374576 0.551178,-1.964386 0.621681,-2.202314 0.654511,-2.208757 0.01656,-0.0033 0.03012,0.0021 0.03012,0.01195 0,0.0098 -0.08693,0.312746 -0.193169,0.673163 -1.019337,3.457985 -1.824929,6.552928 -2.485433,9.54859 -0.07644,0.346681 -0.140512,0.631415 -0.142385,0.632743 -0.0019,0.0013 -2.461853,-2.441749 -5.46662,-5.429059 z"
       id="path23129" />
    <path
       style="fill:#b55b02;fill-opacity:1;stroke:none;stroke-width:0.522278"
       d=""
       id="path23279"
       transform="scale(0.26458333)" />
    <path
       style="fill:#b55b02;fill-opacity:1;stroke:none;stroke-width:0.138186"
       d="m 35.695919,59.614465 c 0,-0.01042 0.03702,-0.05528 0.08226,-0.09969 0.04524,-0.0444 0.08226,-0.09237 0.08226,-0.106589 0,-0.02109 -0.0051,-0.02159 -0.02787,-0.0027 -0.01532,0.01272 -0.03084,0.01989 -0.03448,0.01595 -0.0037,-0.0039 0.257746,-0.279214 0.580858,-0.611706 0.854324,-0.879129 2.445573,-2.525323 3.64735,-3.773295 0.856261,-0.889174 1.040935,-1.089642 1.013611,-1.100301 -0.01839,-0.0072 -0.506431,-0.129417 -1.084561,-0.271666 -2.06701,-0.508585 -3.475075,-0.860569 -4.158901,-1.039631 -2.629112,-0.688439 -5.758622,-1.561841 -8.948489,-2.497394 -4.254216,-1.247716 -6.624268,-1.865505 -7.91562,-2.063324 -0.533957,-0.08179 -0.673955,-0.09337 -1.124274,-0.09296 -0.466465,4.23e-4 -0.622879,0.01829 -0.95148,0.108697 l -0.154513,0.04251 v -0.07924 -0.07924 l 0.09598,-0.01931 c 0.29015,-0.05837 0.390431,-0.06552 0.909473,-0.06487 0.387597,5.03e-4 0.618987,0.0096 0.82264,0.03248 1.179048,0.132325 2.610475,0.452753 4.844432,1.084439 0.862273,0.243821 1.226171,0.351042 3.528209,1.039572 3.194535,0.955472 4.631453,1.374269 6.178937,1.800883 2.817945,0.776858 5.435611,1.419699 7.865287,1.931543 l 0.41583,0.0876 -0.143425,0.146569 c -0.656093,0.670473 -5.137666,5.240455 -5.306682,5.411368 -0.119266,0.120602 -0.216844,0.210749 -0.216844,0.200326 z"
       id="path23318" />
    <path
       style="fill:#b55b02;fill-opacity:1;stroke:none;stroke-width:0.522278"
       d=""
       id="path23394"
       transform="scale(0.26458333)" />
    <path
       style="fill:#b55b02;fill-opacity:1;stroke:none;stroke-width:0.522278"
       d=""
       id="path23433"
       transform="scale(0.26458333)" />
    <path
       style="fill:#b55b02;fill-opacity:1;stroke:none;stroke-width:0.522278"
       d=""
       id="path23546"
       transform="scale(0.26458333)" />
    <path
       style="fill:#b55b02;fill-opacity:1;stroke:none;stroke-width:0.522278"
       d=""
       id="path23585"
       transform="scale(0.26458333)" />
    <path
       style="fill:#b55b02;fill-opacity:1;stroke:none;stroke-width:0.522278"
       d=""
       id="path23735"
       transform="scale(0.26458333)" />
    <path
       style="fill:#b55b02;fill-opacity:1;stroke:none;stroke-width:0.522278"
       d=""
       id="path23885"
       transform="scale(0.26458333)" />
    <ellipse
       style="fill:#b55b02;fill-opacity:1;stroke:none;stroke-width:2.63104"
       id="path24022"
       cx="41.526802"
       cy="87.359955"
       rx="6.1705108"
       ry="5.9385939" />
    <ellipse
       style="display:inline;fill:#b55b02;fill-opacity:1;stroke:none;stroke-width:2.63104"
       id="path24022-1"
       cx="68.355499"
       cy="87.797005"
       rx="6.1705108"
       ry="5.9385939" />
  </g>
  <g
     inkscape:groupmode="layer"
     id="g871"
     inkscape:label="Closed Eyes"
     style="display:none">
    <ellipse
       style="fill:#3e494c;fill-opacity:1;stroke:none;stroke-width:0.102067;stroke-opacity:1"
       id="circle857"
       cx="155.60681"
       cy="103.67873"
       rx="8.7748203"
       ry="1.3058289" />
    <ellipse
       style="fill:#3e494c;fill-opacity:1;stroke:none;stroke-width:0.109853;stroke-opacity:1"
       id="circle859"
       cx="202.0632"
       cy="103.34824"
       rx="8.7748203"
       ry="1.5126535" />
    <ellipse
       style="fill:#b55b02;fill-opacity:1;stroke:none;stroke-width:0.072127;stroke-opacity:1"
       id="circle861"
       cx="317.57755"
       cy="105.24766"
       rx="7.019856"
       ry="0.81512058" />
    <ellipse
       style="fill:#b55b02;fill-opacity:1;stroke:none;stroke-width:0.0673966;stroke-opacity:1"
       id="circle863"
       cx="348.41058"
       cy="104.93742"
       rx="7.019856"
       ry="0.71170831" />
    <path
       style="fill:none;stroke:#d38b00;stroke-width:2.80768;stroke-linecap:butt;stroke-linejoin:miter;stroke-miterlimit:4;stroke-dasharray:none;stroke-opacity:0.570842"
       d="m 325.84512,68.156317 c -0.57344,3.652739 -0.30334,7.370511 -0.30334,11.054086"
       id="path865" />
    <path
       style="fill:none;stroke:#d38b00;stroke-width:2.80768;stroke-linecap:butt;stroke-linejoin:miter;stroke-miterlimit:4;stroke-dasharray:none;stroke-opacity:0.570842"
       d="m 332.46712,67.412831 c -0.57344,3.652739 -0.30334,7.370511 -0.30334,11.054086"
       id="path867" />
    <path
       style="fill:none;stroke:#d38b00;stroke-width:2.80768;stroke-linecap:butt;stroke-linejoin:miter;stroke-miterlimit:4;stroke-dasharray:none;stroke-opacity:0.570842"
       d="m 338.60949,67.997818 c -0.57344,3.652739 -0.30334,7.370511 -0.30334,11.054087"
       id="path869" />
  </g>
</svg>
