<?xml version="1.0" encoding="UTF-8" standalone="no"?>
<!-- Created with Inkscape (http://www.inkscape.org/) -->

<svg
   width="1000mm"
   height="107mm"
   viewBox="0 0 1000 107"
   version="1.1"
   id="svg5"
   inkscape:version="1.1.1 (3bf5ae0d25, 2021-09-20)"
   sodipodi:docname="terrain.svg"
   xmlns:inkscape="http://www.inkscape.org/namespaces/inkscape"
   xmlns:sodipodi="http://sodipodi.sourceforge.net/DTD/sodipodi-0.dtd"
   xmlns="http://www.w3.org/2000/svg"
   xmlns:svg="http://www.w3.org/2000/svg">
  <sodipodi:namedview
     id="namedview7"
     pagecolor="#ffffff"
     bordercolor="#666666"
     borderopacity="1.0"
     inkscape:pageshadow="2"
     inkscape:pageopacity="0.0"
     inkscape:pagecheckerboard="0"
     inkscape:document-units="mm"
     showgrid="false"
     inkscape:zoom="0.15990811"
     inkscape:cx="1547.7639"
     inkscape:cy="-121.94504"
     inkscape:window-width="1920"
     inkscape:window-height="991"
     inkscape:window-x="-9"
     inkscape:window-y="-9"
     inkscape:window-maximized="1"
     inkscape:current-layer="layer1" />
  <defs
     id="defs2" />
  <g
     inkscape:label="Layer 1"
     inkscape:groupmode="layer"
     id="layer1">
    <path
       style="fill:#c0c0bf;fill-opacity:1;stroke:#000000;stroke-width:1.065;stroke-linecap:butt;stroke-linejoin:miter;stroke-miterlimit:4;stroke-dasharray:none;stroke-opacity:1"
       d="m 5.1706128,108.99652 c 8.3530942,2.22567 5.1141832,-7.17303 6.4115602,-8.68663 1.255156,-1.464352 4.358321,-1.071641 5.170612,-3.102371 0.734708,-1.83677 0.10279,-4.186637 0.827298,-5.997911 1.341886,-3.354713 3.664176,-6.178392 4.13649,-9.720752 0.294278,-2.207078 0.849712,-4.532829 0.620474,-6.825208 -0.138382,-1.383815 -2.868481,-3.336253 -1.447772,-4.756965 2.3493,-2.349298 8.759287,-1.654595 11.582172,-1.654595 8.472374,0 10.875359,-2.100371 17.580083,2.688719 0.319614,0.228296 1.922341,0.803233 2.068245,1.240946 1.486647,4.459939 0.262123,9.336956 2.27507,13.650418 2.161712,4.63224 6.268167,4.788411 7.859332,7.652507 2.985796,5.374433 4.03861,12.474832 9.10028,15.511842"
       id="path859" />
    <path
       style="fill:#c0c0bf;fill-opacity:1;stroke:#000000;stroke-width:1.065;stroke-linecap:butt;stroke-linejoin:miter;stroke-miterlimit:4;stroke-dasharray:none;stroke-opacity:1"
       d="M 80.661559,109.61699 C 77.668066,93.52573 98.241658,98.965503 98.862117,98.034818 c 1.014037,-1.521055 0.459121,-8.042979 2.068243,-8.686631 2.94981,-1.179922 22.25287,2.520357 23.16435,4.343315 0.80694,1.613879 0.32383,3.597617 0.62047,5.377437 1.31666,7.899931 2.41725,7.103121 8.89345,10.341231"
       id="path861" />
    <path
       style="fill:#c0c0bf;fill-opacity:1;stroke:#000000;stroke-width:1.065;stroke-linecap:butt;stroke-linejoin:miter;stroke-miterlimit:4;stroke-dasharray:none;stroke-opacity:1"
       d="m 144.98398,108.99652 c 4.27248,-8.90206 13.6724,-4.96196 21.0961,-4.34332 2.83803,0.2365 5.04654,-2.02687 8.27298,-0.41365 0.43849,0.21925 1.54709,4.73239 1.6546,5.37744"
       id="path863" />
    <path
       style="fill:#c0c0bf;fill-opacity:1;stroke:#000000;stroke-width:1.065;stroke-linecap:butt;stroke-linejoin:miter;stroke-miterlimit:4;stroke-dasharray:none;stroke-opacity:1"
       d="m 223.5773,109.41017 c 11.80495,-6.38801 12.35217,-25.307358 23.78481,-31.023681 2.11489,-1.057441 6.59729,1.65108 9.10028,2.068245 2.48205,0.413674 6.87579,-0.655698 9.10027,0.8273 0.51694,0.344611 0.21331,12.222083 1.03412,14.684538 0.56571,1.697091 3.56629,2.247075 4.55015,3.722841 1.78414,2.676207 1.80877,5.959747 3.92967,8.686627"
       id="path1868" />
    <path
       style="fill:#c0c0bf;fill-opacity:1;stroke:#000000;stroke-width:1.065;stroke-linecap:butt;stroke-linejoin:miter;stroke-miterlimit:4;stroke-dasharray:none;stroke-opacity:1"
       d="m 275.0766,108.37604 c 8.3531,2.22567 5.11419,-7.17303 6.41156,-8.68663 1.25516,-1.46435 4.35832,-1.07164 5.17062,-3.10237 0.7347,-1.83677 0.10278,-4.18664 0.82729,-5.99791 1.34189,-3.35472 3.66418,-6.178397 4.13649,-9.720757 0.29428,-2.207078 0.84971,-4.532829 0.62048,-6.825208 -0.13839,-1.383815 -2.86848,-3.336253 -1.44778,-4.756965 2.3493,-2.349298 8.75929,-1.654595 11.58218,-1.654595 8.47237,0 10.87536,-2.100371 17.58008,2.688719 0.31961,0.228296 1.92234,0.803233 2.06824,1.240946 1.48665,4.459939 0.26213,9.336956 2.27507,13.650418 2.16172,4.632242 6.26817,4.788412 7.85934,7.652512 2.98579,5.37443 4.03861,12.47483 9.10028,15.51184"
       id="path859-0" />
    <path
       style="fill:#c0c0bf;fill-opacity:1;stroke:#000000;stroke-width:1.065;stroke-linecap:butt;stroke-linejoin:miter;stroke-miterlimit:4;stroke-dasharray:none;stroke-opacity:1"
       d="m 350.56755,108.99651 c -2.99349,-16.09126 17.5801,-10.65149 18.20056,-11.58218 1.01403,-1.52105 0.45912,-8.04297 2.06824,-8.68663 2.94981,-1.17992 22.25287,2.52036 23.16435,4.34332 0.80694,1.61388 0.32383,3.59762 0.62047,5.37744 1.31666,7.89993 2.41725,7.10312 8.89345,10.34123"
       id="path861-9" />
    <path
       style="fill:#c0c0bf;fill-opacity:1;stroke:#000000;stroke-width:1.065;stroke-linecap:butt;stroke-linejoin:miter;stroke-miterlimit:4;stroke-dasharray:none;stroke-opacity:1"
       d="m 414.88997,108.37604 c 4.27248,-8.90206 13.6724,-4.96196 21.0961,-4.34332 2.83803,0.2365 5.04654,-2.02687 8.27298,-0.41365 0.43849,0.21925 1.54709,4.73239 1.6546,5.37744"
       id="path863-3" />
    <path
       style="fill:#c0c0bf;fill-opacity:1;stroke:#000000;stroke-width:1.065;stroke-linecap:butt;stroke-linejoin:miter;stroke-miterlimit:4;stroke-dasharray:none;stroke-opacity:1"
       d="m 493.48329,108.78969 c 11.80495,-6.38801 12.35217,-25.307361 23.78481,-31.023684 2.11489,-1.057441 6.59729,1.65108 9.10028,2.068245 2.48205,0.413674 6.87579,-0.655698 9.10027,0.8273 0.51694,0.344611 0.21331,12.222079 1.03412,14.684539 0.56571,1.69709 3.56629,2.24707 4.55015,3.72284 1.78414,2.67621 1.80877,5.95975 3.92967,8.68663"
       id="path1868-9" />
    <path
       style="fill:#c0c0bf;fill-opacity:1;stroke:#000000;stroke-width:1.065;stroke-linecap:butt;stroke-linejoin:miter;stroke-miterlimit:4;stroke-dasharray:none;stroke-opacity:1"
       d="m 544.98259,107.75556 c 8.3531,2.22567 5.11419,-7.17303 6.41156,-8.68663 1.25516,-1.46435 4.35832,-1.07164 5.17062,-3.10237 0.7347,-1.83677 0.10278,-4.18664 0.82729,-5.99791 1.34189,-3.35471 3.66418,-6.17839 4.13649,-9.72075 0.29428,-2.20708 0.84971,-4.53283 0.62048,-6.82521 -0.13839,-1.38382 -2.86848,-3.33625 -1.44778,-4.75697 2.34931,-2.34929 8.75929,-1.65459 11.58218,-1.65459 8.47237,0 10.87536,-2.10037 17.58008,2.68872 0.31961,0.22829 1.92234,0.80323 2.06824,1.24094 1.48665,4.45994 0.26213,9.33696 2.27507,13.65042 2.16172,4.63224 6.26817,4.78841 7.85934,7.65251 2.98579,5.37443 4.03861,12.47483 9.10028,15.51184"
       id="path859-4" />
    <path
       style="fill:#c0c0bf;fill-opacity:1;stroke:#000000;stroke-width:1.065;stroke-linecap:butt;stroke-linejoin:miter;stroke-miterlimit:4;stroke-dasharray:none;stroke-opacity:1"
       d="m 620.47354,108.37603 c -2.99349,-16.09126 17.5801,-10.65149 18.20056,-11.58217 1.01403,-1.52106 0.45912,-8.04298 2.06824,-8.68663 2.94981,-1.17992 22.25287,2.52035 23.16435,4.34331 0.80694,1.61388 0.32383,3.59762 0.62047,5.37744 1.31666,7.89993 2.41725,7.10312 8.89345,10.34123"
       id="path861-6" />
    <path
       style="fill:#c0c0bf;fill-opacity:1;stroke:#000000;stroke-width:1.065;stroke-linecap:butt;stroke-linejoin:miter;stroke-miterlimit:4;stroke-dasharray:none;stroke-opacity:1"
       d="m 684.79596,107.75556 c 4.27248,-8.90206 13.6724,-4.96196 21.0961,-4.34332 2.83803,0.2365 5.04654,-2.02687 8.27298,-0.41365 0.43849,0.21925 1.54709,4.73239 1.6546,5.37744"
       id="path863-5" />
    <path
       style="fill:#c0c0bf;fill-opacity:1;stroke:#000000;stroke-width:1.065;stroke-linecap:butt;stroke-linejoin:miter;stroke-miterlimit:4;stroke-dasharray:none;stroke-opacity:1"
       d="m 763.38928,108.16921 c 11.80495,-6.38801 12.35217,-25.30736 23.78481,-31.02368 2.11489,-1.05744 6.59729,1.65108 9.10028,2.06825 2.48205,0.41367 6.87579,-0.6557 9.10027,0.82729 0.51694,0.34462 0.21331,12.22209 1.03412,14.68454 0.56571,1.69709 3.56629,2.24708 4.55015,3.72284 1.78414,2.67621 1.80877,5.95975 3.92967,8.68663"
       id="path1868-92" />
    <path
       style="fill:#c0c0bf;fill-opacity:1;stroke:#000000;stroke-width:1.065;stroke-linecap:butt;stroke-linejoin:miter;stroke-miterlimit:4;stroke-dasharray:none;stroke-opacity:1"
       d="m 814.88858,107.13508 c 8.3531,2.22567 5.11419,-7.17303 6.41156,-8.68663 1.25516,-1.46435 4.35832,-1.07164 5.17062,-3.10237 0.7347,-1.83677 0.10279,-4.18664 0.82729,-5.99791 1.34189,-3.35471 3.66418,-6.17839 4.13649,-9.72075 0.29428,-2.20708 0.84972,-4.53283 0.62048,-6.82521 -0.13838,-1.38381 -2.86848,-3.33625 -1.44777,-4.75697 2.3493,-2.34929 8.75928,-1.65459 11.58217,-1.65459 8.47237,0 10.87536,-2.10037 17.58008,2.68872 0.31961,0.2283 1.92234,0.80323 2.06825,1.24094 1.48664,4.45994 0.26212,9.33696 2.27507,13.65042 2.16171,4.63224 6.26816,4.78841 7.85933,7.65251 2.98579,5.37443 4.03861,12.47483 9.10028,15.51184"
       id="path859-3" />
    <path
       style="fill:#c0c0bf;fill-opacity:1;stroke:#000000;stroke-width:1.065;stroke-linecap:butt;stroke-linejoin:miter;stroke-miterlimit:4;stroke-dasharray:none;stroke-opacity:1"
       d="m 890.37953,107.75555 c -2.99349,-16.09126 17.5801,-10.65149 18.20056,-11.58217 1.01403,-1.52106 0.45912,-8.04298 2.06824,-8.68663 2.94981,-1.17992 22.25287,2.52036 23.16435,4.34331 0.80694,1.61388 0.32383,3.59762 0.62047,5.37744 1.31666,7.89993 2.41725,7.10312 8.89345,10.34123"
       id="path861-8" />
    <path
       style="fill:#c0c0bf;fill-opacity:1;stroke:#000000;stroke-width:1.065;stroke-linecap:butt;stroke-linejoin:miter;stroke-miterlimit:4;stroke-dasharray:none;stroke-opacity:1"
       d="m 954.70195,107.13508 c 4.27248,-8.90206 13.6724,-4.96196 21.0961,-4.34332 2.83803,0.2365 5.04654,-2.02687 8.27298,-0.41365 0.43849,0.21925 1.54709,4.73239 1.6546,5.37744"
       id="path863-4" />
    <path
       style="fill:#c0c0bf;fill-opacity:1;stroke:#000000;stroke-width:1.065;stroke-linecap:butt;stroke-linejoin:miter;stroke-miterlimit:4;stroke-dasharray:none;stroke-opacity:1"
       d="m 1033.2953,107.54873 c 11.8049,-6.38801 12.3521,-25.30736 23.7848,-31.02368 2.1149,-1.05744 6.5973,1.65108 9.1003,2.06825 2.482,0.41367 6.8758,-0.6557 9.1002,0.8273 0.517,0.34461 0.2133,12.22208 1.0342,14.68453 0.5657,1.69709 3.5662,2.24708 4.5501,3.72284 1.7841,2.67621 1.8088,5.95975 3.9297,8.68663"
       id="path1868-2" />
  </g>
</svg>
