<?xml version="1.0" encoding="UTF-8" standalone="no"?>
<!-- Created with Inkscape (http://www.inkscape.org/) -->

<svg
   width="700mm"
   height="144mm"
   viewBox="0 0 699.99998 144"
   version="1.1"
   id="svg5"
   inkscape:version="1.1.1 (3bf5ae0d25, 2021-09-20)"
   sodipodi:docname="waves-yellow.svg"
   xmlns:inkscape="http://www.inkscape.org/namespaces/inkscape"
   xmlns:sodipodi="http://sodipodi.sourceforge.net/DTD/sodipodi-0.dtd"
   xmlns="http://www.w3.org/2000/svg"
   xmlns:svg="http://www.w3.org/2000/svg">
  <sodipodi:namedview
     id="namedview7"
     pagecolor="#ffffff"
     bordercolor="#666666"
     borderopacity="1.0"
     inkscape:pageshadow="2"
     inkscape:pageopacity="0.0"
     inkscape:pagecheckerboard="0"
     inkscape:document-units="mm"
     showgrid="false"
     inkscape:zoom="0.71446409"
     inkscape:cx="2035.7916"
     inkscape:cy="276.43097"
     inkscape:window-width="1920"
     inkscape:window-height="991"
     inkscape:window-x="-9"
     inkscape:window-y="-9"
     inkscape:window-maximized="1"
     inkscape:current-layer="layer1"
     inkscape:snap-bbox="false"
     height="95mm"
     inkscape:snap-global="false" />
  <defs
     id="defs2" />
  <g
     inkscape:label="Layer 1"
     inkscape:groupmode="layer"
     id="layer1">
    <path
       style="fill:#ffff21;stroke:#000000;stroke-width:0.678577px;stroke-linecap:butt;stroke-linejoin:miter;stroke-opacity:1;fill-opacity:1"
       d="m 709.82475,151.56554 c -35.43657,-69.911601 -76.30239,-0.37982 -108.45271,-9.78981 -24.08618,-7.04971 -29.5902,-49.838986 -69.93682,-49.838986 -11.23094,0 -26.39825,19.500136 -31.4209,10.679776 C 481.00918,69.241178 482.1054,53.706792 436.15898,48.327619 391.41377,43.089083 385.44424,128.10833 378.38511,123.97609 345.91071,104.96643 351.70509,52.404327 285.13604,67.01724 c -3.8455,0.844144 -31.63108,43.24 -32.43448,41.82915 -69.41763,-121.905813 -49.74349,-32.004987 -112.507,-4.4499 -10.27446,4.5108 -5.31947,-23.509842 -16.21722,-26.699464 C 81.765941,65.342309 3.296731,117.08443 -4.746949,145.33566"
       id="path2468" />
  </g>
</svg>
