<?xml version="1.0" encoding="UTF-8" standalone="no"?>
<!-- Created with Inkscape (http://www.inkscape.org/) -->

<svg
   width="700mm"
   height="144mm"
   viewBox="0 0 699.99998 144"
   version="1.1"
   id="svg5"
   inkscape:version="1.1.1 (3bf5ae0d25, 2021-09-20)"
   sodipodi:docname="waves-pink.svg"
   xmlns:inkscape="http://www.inkscape.org/namespaces/inkscape"
   xmlns:sodipodi="http://sodipodi.sourceforge.net/DTD/sodipodi-0.dtd"
   xmlns="http://www.w3.org/2000/svg"
   xmlns:svg="http://www.w3.org/2000/svg">
  <sodipodi:namedview
     id="namedview7"
     pagecolor="#ffffff"
     bordercolor="#666666"
     borderopacity="1.0"
     inkscape:pageshadow="2"
     inkscape:pageopacity="0.0"
     inkscape:pagecheckerboard="0"
     inkscape:document-units="mm"
     showgrid="false"
     inkscape:zoom="0.71446409"
     inkscape:cx="1236.5912"
     inkscape:cy="276.43097"
     inkscape:window-width="1920"
     inkscape:window-height="991"
     inkscape:window-x="-9"
     inkscape:window-y="-9"
     inkscape:window-maximized="1"
     inkscape:current-layer="layer1"
     inkscape:snap-bbox="false"
     height="95mm"
     inkscape:snap-global="false" />
  <defs
     id="defs2" />
  <g
     inkscape:label="Layer 1"
     inkscape:groupmode="layer"
     id="layer1">
    <path
       style="fill:#ff1b70;fill-opacity:1;stroke:#000000;stroke-width:0.671348px;stroke-linecap:butt;stroke-linejoin:miter;stroke-opacity:1"
       d="m 709.82636,151.5611 c -35.43673,-68.429575 -76.30274,-0.37176 -108.4532,-9.58227 -24.08629,-6.90027 -29.59034,-48.78248 -69.93714,-48.78248 -11.23099,0 -26.39837,19.08676 -31.42103,10.45338 C 481.00976,70.981895 482.10598,55.776815 436.15935,50.511673 391.41395,45.384186 385.44439,128.60115 378.38522,124.55651 345.91068,105.94983 351.70509,54.501961 285.13573,68.805102 281.29022,69.631351 253.50451,111.12848 252.70111,109.74754 183.28317,-9.5740557 202.9574,78.421007 140.1936,105.39197 129.9191,109.80715 134.87411,82.380499 123.97631,79.258492 81.764724,67.165677 3.2951607,117.81094 -4.7485554,145.46329"
       id="path2468" />
  </g>
</svg>
